{
  "accessors": [
    {
      "bufferView": 2,
      "componentType": 5126,
      "count": 65532,
      "max": [
        1.0001590251922607,
        0.08383399993181229,
        0.7166540026664734
      ],
      "min": [
        -0.9963650107383728,
        -0.08339899778366089,
        -0.7150480151176453
      ],
      "type": "VEC3"
    },
    {
      "bufferView": 2,
      "byteOffset": 786384,
      "componentType": 5126,
      "count": 65532,
      "max": [
        0.9999994039535522,
        0.9999997019767761,
        0.9999999403953552
      ],
      "min": [
        -0.9999994039535522,
        -0.9999958276748657,
        -0.999963104724884
      ],
      "type": "VEC3"
    },
    {
      "bufferView": 1,
      "componentType": 5126,
      "count": 65532,
      "max": [
        0.9960759878158569,
        0.99891197681427
      ],
      "min": [
        0.001088000019080937,
        0.001212000846862793
      ],
      "type": "VEC2"
    },
    {
      "bufferView": 0,
      "componentType": 5125,
      "count": 342981,
      "type": "SCALAR"
    },
    {
      "bufferView": 2,
      "byteOffset": 1572768,
      "componentType": 5126,
      "count": 65532,
      "max": [
        0.9619809985160828,
        0.08291000127792358,
        0.6822400093078613
      ],
      "min": [
        -1.0005359649658203,
        -0.08556900173425674,
        -0.7158309817314148
      ],
      "type": "VEC3"
    },
    {
      "bufferView": 2,
      "byteOffset": 2359152,
      "componentType": 5126,
      "count": 65532,
      "max": [
        0.999980092048645,
        0.9999999403953552,
        0.9996904134750366
      ],
      "min": [
        -0.9999968409538269,
        -1.0,
        -0.9998876452445984
      ],
      "type": "VEC3"
    },
    {
      "bufferView": 1,
      "byteOffset": 524256,
      "componentType": 5126,
      "count": 65532,
      "max": [
        0.996192991733551,
        0.9986879825592041
      ],
      "min": [
        0.001088000019080937,
        0.0012800097465515137
      ],
      "type": "VEC2"
    },
    {
      "bufferView": 0,
      "byteOffset": 1371924,
      "componentType": 5125,
      "count": 345159,
      "type": "SCALAR"
    },
    {
      "bufferView": 2,
      "byteOffset": 3145536,
      "componentType": 5126,
      "count": 65534,
      "max": [
        1.0001590251922607,
        0.08283399790525436,
        0.682453989982605
      ],
      "min": [
        -0.9690899848937988,
        -0.0848890021443367,
        -0.5741230249404907
      ],
      "type": "VEC3"
    },
    {
      "bufferView": 2,
      "byteOffset": 3931944,
      "componentType": 5126,
      "count": 65534,
      "max": [
        0.9999983310699463,
        1.0,
        0.9999814629554749
      ],
      "min": [
        -0.9999994039535522,
        -1.0,
        -0.999998927116394
      ],
      "type": "VEC3"
    },
    {
      "bufferView": 1,
      "byteOffset": 1048512,
      "componentType": 5126,
      "count": 65534,
      "max": [
        0.99891197681427,
        0.99891197681427
      ],
      "min": [
        0.001088000019080937,
        0.0011870265007019043
      ],
      "type": "VEC2"
    },
    {
      "bufferView": 0,
      "byteOffset": 2752560,
      "componentType": 5125,
      "count": 315183,
      "type": "SCALAR"
    },
    {
      "bufferView": 2,
      "byteOffset": 4718352,
      "componentType": 5126,
      "count": 65532,
      "max": [
        0.9624649882316589,
        0.08285299688577652,
        0.5188599824905396
      ],
      "min": [
        -0.9998599886894226,
        -0.0854640007019043,
        -0.6787959933280945
      ],
      "type": "VEC3"
    },
    {
      "bufferView": 2,
      "byteOffset": 5504736,
      "componentType": 5126,
      "count": 65532,
      "max": [
        0.9995723962783813,
        1.0,
        0.9998764991760254
      ],
      "min": [
        -0.999992311000824,
        -1.0,
        -0.9990634322166443
      ],
      "type": "VEC3"
    },
    {
      "bufferView": 1,
      "byteOffset": 1572784,
      "componentType": 5126,
      "count": 65532,
      "max": [
        0.9988909959793091,
        0.9948070049285889
      ],
      "min": [
        0.001088000019080937,
        0.0011919736862182617
      ],
      "type": "VEC2"
    },
    {
      "bufferView": 0,
      "byteOffset": 4013292,
      "componentType": 5125,
      "count": 321270,
      "type": "SCALAR"
    },
    {
      "bufferView": 2,
      "byteOffset": 6291120,
      "componentType": 5126,
      "count": 65532,
      "max": [
        0.6519010066986084,
        0.07544499635696411,
        0.5112230181694031
      ],
      "min": [
        -0.946636974811554,
        -0.0854640007019043,
        -0.6645219922065735
      ],
      "type": "VEC3"
    },
    {
      "bufferView": 2,
      "byteOffset": 7077504,
      "componentType": 5126,
      "count": 65532,
      "max": [
        1.0,
        1.0,
        0.9999467134475708
      ],
      "min": [
        -0.9999974966049194,
        -1.0,
        -0.9989974498748779
      ],
      "type": "VEC3"
    },
    {
      "bufferView": 1,
      "byteOffset": 2097040,
      "componentType": 5126,
      "count": 65532,
      "max": [
        0.9988430142402649,
        0.9949550032615662
      ],
      "min": [
        0.001088000019080937,
        0.0012310147285461426
      ],
      "type": "VEC2"
    },
    {
      "bufferView": 0,
      "byteOffset": 5298372,
      "componentType": 5125,
      "count": 320763,
      "type": "SCALAR"
    },
    {
      "bufferView": 2,
      "byteOffset": 7863888,
      "componentType": 5126,
      "count": 65532,
      "max": [
        0.9971820116043091,
        0.08319199830293655,
        0.12522999942302704
      ],
      "min": [
        -1.0000020265579224,
        -0.08508600294589996,
        -0.716543972492218
      ],
      "type": "VEC3"
    },
    {
      "bufferView": 2,
      "byteOffset": 8650272,
      "componentType": 5126,
      "count": 65532,
      "max": [
        0.9998665452003479,
        1.0,
        0.999971866607666
      ],
      "min": [
        -0.9999889731407166,
        -1.0,
        -0.999995768070221
      ],
      "type": "VEC3"
    },
    {
      "bufferView": 1,
      "byteOffset": 2621296,
      "componentType": 5126,
      "count": 65532,
      "max": [
        0.9988769888877869,
        0.9989129900932312
      ],
      "min": [
        0.001088000019080937,
        0.0011799931526184082
      ],
      "type": "VEC2"
    },
    {
      "bufferView": 0,
      "byteOffset": 6581424,
      "componentType": 5125,
      "count": 307155,
      "type": "SCALAR"
    },
    {
      "bufferView": 2,
      "byteOffset": 9436656,
      "componentType": 5126,
      "count": 64641,
      "max": [
        0.9998090267181396,
        0.08274299651384354,
        0.5229529738426208
      ],
      "min": [
        -1.0005359649658203,
        -0.08557099848985672,
        -0.5331869721412659
      ],
      "type": "VEC3"
    },
    {
      "bufferView": 2,
      "byteOffset": 10212348,
      "componentType": 5126,
      "count": 64641,
      "max": [
        0.9999997019767761,
        1.0,
        0.9998764991760254
      ],
      "min": [
        -0.9999968409538269,
        -1.0,
        -0.9999892115592957
      ],
      "type": "VEC3"
    },
    {
      "bufferView": 1,
      "byteOffset": 3145552,
      "componentType": 5126,
      "count": 64641,
      "max": [
        0.9988999962806702,
        0.99891197681427
      ],
      "min": [
        0.001088000019080937,
        0.00113600492477417
      ],
      "type": "VEC2"
    },
    {
      "bufferView": 0,
      "byteOffset": 7810044,
      "componentType": 5125,
      "count": 236328,
      "type": "SCALAR"
    }
  ],
  "asset": {
    "extras": {
      "author": "kkso199 (https://sketchfab.com/kkso199)",
      "license": "CC-BY-4.0 (http://creativecommons.org/licenses/by/4.0/)",
      "source": "https://sketchfab.com/3d-models/medical-instrument-tray-7babe1cd3e82485da6ce3eb2add5b8ac",
      "title": "Medical instrument tray"
    },
    "generator": "Sketchfab-17.8.0",
    "version": "2.0"
  },
  "bufferViews": [
    {
      "buffer": 0,
      "byteLength": 8755356,
      "name": "floatBufferViews",
      "target": 34963
    },
    {
      "buffer": 0,
      "byteLength": 3662680,
      "byteOffset": 8755356,
      "byteStride": 8,
      "name": "floatBufferViews",
      "target": 34962
    },
    {
      "buffer": 0,
      "byteLength": 10988040,
      "byteOffset": 12418036,
      "byteStride": 12,
      "name": "floatBufferViews",
      "target": 34962
    }
  ],
  "buffers": [
    {
      "byteLength": 23406076,
      "uri": "scene.bin"
    }
  ],
  "images": [
    {
      "uri": "textures/material_0_baseColor.jpeg"
    }
  ],
  "materials": [
    {
      "doubleSided": true,
      "name": "material_0",
      "pbrMetallicRoughness": {
        "baseColorTexture": {
          "index": 0
        },
        "metallicFactor": 0.0,
        "roughnessFactor": 0.8
      }
    }
  ],
  "meshes": [
    {
      "name": "Object_0",
      "primitives": [
        {
          "attributes": {
            "NORMAL": 1,
            "POSITION": 0,
            "TEXCOORD_0": 2
          },
          "indices": 3,
          "material": 0,
          "mode": 4
        }
      ]
    },
    {
      "name": "Object_1",
      "primitives": [
        {
          "attributes": {
            "NORMAL": 5,
            "POSITION": 4,
            "TEXCOORD_0": 6
          },
          "indices": 7,
          "material": 0,
          "mode": 4
        }
      ]
    },
    {
      "name": "Object_2",
      "primitives": [
        {
          "attributes": {
            "NORMAL": 9,
            "POSITION": 8,
            "TEXCOORD_0": 10
          },
          "indices": 11,
          "material": 0,
          "mode": 4
        }
      ]
    },
    {
      "name": "Object_3",
      "primitives": [
        {
          "attributes": {
            "NORMAL": 13,
            "POSITION": 12,
            "TEXCOORD_0": 14
          },
          "indices": 15,
          "material": 0,
          "mode": 4
        }
      ]
    },
    {
      "name": "Object_4",
      "primitives": [
        {
          "attributes": {
            "NORMAL": 17,
            "POSITION": 16,
            "TEXCOORD_0": 18
          },
          "indices": 19,
          "material": 0,
          "mode": 4
        }
      ]
    },
    {
      "name": "Object_5",
      "primitives": [
        {
          "attributes": {
            "NORMAL": 21,
            "POSITION": 20,
            "TEXCOORD_0": 22
          },
          "indices": 23,
          "material": 0,
          "mode": 4
        }
      ]
    },
    {
      "name": "Object_6",
      "primitives": [
        {
          "attributes": {
            "NORMAL": 25,
            "POSITION": 24,
            "TEXCOORD_0": 26
          },
          "indices": 27,
          "material": 0,
          "mode": 4
        }
      ]
    }
  ],
  "nodes": [
    {
      "children": [
        1
      ],
      "matrix": [
        1.0,
        0.0,
        0.0,
        0.0,
        0.0,
        2.220446049250313e-16,
        -1.0,
        0.0,
        0.0,
        1.0,
        2.220446049250313e-16,
        0.0,
        0.0,
        0.0,
        0.0,
        1.0
      ],
      "name": "Sketchfab_model"
    },
    {
      "children": [
        2
      ],
      "name": "root"
    },
    {
      "children": [
        3
      ],
      "matrix": [
        1.0,
        0.0,
        0.0,
        0.0,
        0.0,
        2.220446049250313e-16,
        1.0,
        0.0,
        0.0,
        -1.0,
        2.220446049250313e-16,
        0.0,
        0.0,
        0.0,
        0.0,
        1.0
      ],
      "name": "GLTF_SceneRootNode"
    },
    {
      "children": [
        4
      ],
      "name": "_1"
    },
    {
      "children": [
        5,
        6,
        7,
        8,
        9,
        10,
        11
      ],
      "name": "mesh_0_0"
    },
    {
      "mesh": 0,
      "name": "Object_5"
    },
    {
      "mesh": 1,
      "name": "Object_6"
    },
    {
      "mesh": 2,
      "name": "Object_7"
    },
    {
      "mesh": 3,
      "name": "Object_8"
    },
    {
      "mesh": 4,
      "name": "Object_9"
    },
    {
      "mesh": 5,
      "name": "Object_10"
    },
    {
      "mesh": 6,
      "name": "Object_11"
    }
  ],
  "samplers": [
    {
      "magFilter": 9729,
      "minFilter": 9987,
      "wrapS": 10497,
      "wrapT": 10497
    }
  ],
  "scene": 0,
  "scenes": [
    {
      "name": "Sketchfab_Scene",
      "nodes": [
        0
      ]
    }
  ],
  "textures": [
    {
      "sampler": 0,
      "source": 0
    }
  ]
}
